<svg xmlns="http://www.w3.org/2000/svg" viewBox="0 0 600 360">
  <rect width="600" height="360" fill="#0a0e18"/>
  <rect x="1" y="1" width="598" height="358" fill="none" stroke="#38bdf8" stroke-width="2"/>
  <text x="300" y="45" fill="#7dd3fc" font-size="20" font-family="sans-serif" text-anchor="middle" font-weight="bold">RATING CHART</text>
  <line x1="80" y1="60" x2="520" y2="60" stroke="#38bdf8" stroke-width="1" opacity="0.4"/>
  <polyline points="80,300 120,280 160,285 200,255 240,260 280,230 320,240 360,200 400,210 440,175 480,185 520,150" fill="none" stroke="#38bdf8" stroke-width="3"/>
  <polygon points="80,300 120,280 160,285 200,255 240,260 280,230 320,240 360,200 400,210 440,175 480,185 520,150 520,300" fill="#38bdf8" opacity="0.15"/>
  <circle cx="520" cy="150" r="5" fill="#f59e0b"/>
  <text x="520" y="135" fill="#f59e0b" font-size="12" font-family="sans-serif" text-anchor="middle" font-weight="bold">PEAK</text>
  <line x1="80" y1="300" x2="520" y2="300" stroke="#ffffff" stroke-width="1" opacity="0.2"/>
  <text x="80" y="325" fill="#7dd3fc" font-size="11" font-family="sans-serif">ELO 1200</text>
  <text x="520" y="325" fill="#7dd3fc" font-size="11" font-family="sans-serif" text-anchor="end">ELO 1750+</text>
  <rect x="200" y="78" width="200" height="36" rx="6" fill="#0f1a2e" stroke="#38bdf8" stroke-width="1"/>
  <text x="300" y="101" fill="#e0f2fe" font-size="13" font-family="sans-serif" text-anchor="middle">TRENDING UP · KEEP GRINDING</text>
</svg>